<svg xmlns="http://www.w3.org/2000/svg" viewBox="0 0 20 20" width="20" height="20"><path fill="black" d="M9.75 0C10.164213 0 10.5 0.33578643 10.5 0.75L10.5 3C10.5 3.4142137 10.164213 3.75 9.75 3.75C9.3357868 3.75 9 3.4142137 9 3L9 0.75C9 0.33578643 9.3357868 0 9.75 0ZM5.25 9.75C5.25 7.2647185 7.2647185 5.25 9.75 5.25C12.235281 5.25 14.25 7.2647185 14.25 9.75C14.25 12.235281 12.235281 14.25 9.75 14.25C7.2647185 14.25 5.25 12.235281 5.25 9.75L5.25 9.75ZM16.643999 3.9159999C16.919359 3.6204903 16.911234 3.1599903 16.625622 2.8743782C16.34001 2.5887661 15.87951 2.580641 15.584 2.8559999L13.993 4.4460001C13.797946 4.6342144 13.719624 4.9130292 13.788137 5.175282C13.85665 5.4375353 14.061337 5.6424146 14.323524 5.711175C14.585713 5.7799354 14.864602 5.7018766 15.053 5.507L16.643999 3.9170001L16.643999 3.9159999ZM19.5 9.75C19.5 10.164213 19.164213 10.5 18.75 10.5L16.5 10.5C16.085787 10.5 15.75 10.164213 15.75 9.75C15.75 9.3357868 16.085787 9 16.5 9L18.75 9C19.164213 9 19.5 9.3357868 19.5 9.75ZM15.584 16.643999C15.87951 16.919359 16.34001 16.911234 16.625622 16.625622C16.911234 16.34001 16.919359 15.87951 16.643999 15.584L15.054 13.993C14.865786 13.797946 14.586971 13.719624 14.324718 13.788137C14.062465 13.85665 13.857585 14.061337 13.788825 14.323524C13.720064 14.585713 13.798123 14.864602 13.993 15.053L15.583 16.643999L15.584 16.643999ZM9.75 15.75C10.164213 15.75 10.5 16.085787 10.5 16.5L10.5 18.75C10.5 19.164213 10.164213 19.5 9.75 19.5C9.3357868 19.5 9 19.164213 9 18.75L9 16.5C9 16.085787 9.3357868 15.75 9.75 15.75ZM5.5079999 15.053C5.7920938 14.758582 5.7878094 14.290802 5.4983716 14.001637C5.2089334 13.712472 4.7411494 13.708629 4.447 13.993L2.8559999 15.583C2.571629 15.87715 2.5754719 16.344934 2.8646371 16.634371C3.1538024 16.923809 3.6215823 16.928093 3.9159999 16.643999L5.507 15.054L5.5079999 15.053ZM3.75 9.75C3.75 10.164213 3.4142137 10.5 3 10.5L0.75 10.5C0.33578643 10.5 0 10.164213 0 9.75C0 9.3357868 0.33578643 9 0.75 9L3 9C3.4142137 9 3.75 9.3357868 3.75 9.75ZM4.447 5.507C4.7425098 5.7823586 5.2030096 5.7742338 5.4886217 5.4886217C5.7742338 5.2030096 5.7823586 4.7425098 5.507 4.447L3.9170001 2.8559999C3.6228504 2.571629 3.1550665 2.5754719 2.8656285 2.8646371C2.5761905 3.1538024 2.5719063 3.6215823 2.8559999 3.9159999L4.4460001 5.507L4.447 5.507Z"/></svg>
